
<svg viewBox="0 0 100 100" xmlns="http://www.w3.org/2000/svg" >
    <g id="Windows">
        <rect x="4" y="4" width="44" height="44" />
        <rect x="52" y="4" width="44" height="44" />    
        <rect x="4" y="52" width="44" height="44" />
        <rect x="52" y="52" width="44" height="44" />  
    </g>
    <g id="Mac">
        <circle cx="50" cy="50" r="50" />
        <line stroke-width="4" x1="32" y1="22" x2="68" y2="78" />
        <line stroke-width="4" x1="68" y1="22" x2="32" y2="78"/>
    </g>
    <g id="Linux">
        <circle cx="50" cy="50" r="50" />
        <circle stroke-width="4" cx="50" cy="50" r="25" />
        <circle stroke-width="4" cx="21" cy="50" r="8" />
        <circle stroke-width="4" cx="65" cy="25" r="8" />
        <circle stroke-width="4" cx="65" cy="75" r="8" />
    </g>
    <g id="top">
        <path d="M100,75 h-16 l-34,-34 l-34,34 h-16 l50,-50 z" />
    </g>
    <g id="info">
        <circle stroke-width="0" cx="50" cy="50" r="50" />
        <circle stroke-width="4" cx="50" cy="25" r="10"/>
        <path stroke-width="4" d="M38,42 h20 v30 h10 v10 h-30 v-10 h10 v-20 h-10 z" />
    </g>
    <g id="theme">
        <circle stroke-width="0" cx="50" cy="50" r="50" />
        <circle stroke-width="15" cx="50" cy="50" r="30" />
    </g>
    <g id="menu">
        <rect x="5" y="12" width="90" height="14" />
        <rect x="5" y="72" width="90" height="14" />
        <rect x="5" y="42" width="90" height="14" />
    </g>
    <g id="extra">
        <circle stroke-width="0" cx="50" cy="50" r="25" />
    </g>
</svg>